<?xml version="1.0" encoding="UTF-8"?><svg id="_圖層_2" xmlns="http://www.w3.org/2000/svg" viewBox="0 0 54.13 30.75"><defs><style>.cls-1{fill:#fff;}.cls-2{fill:#37549f;}</style></defs><g id="_介面"><rect class="cls-1" width="54.13" height="30.75" rx="6.68" ry="6.68"/><path class="cls-2" d="M24.41,15.09c-.63,1.12-1.57,2.08-2.68,2.89,1.28.63,2.73,1.08,4.25,1.34-.26.24-.59.73-.77,1.06-.43-.08-.83-.2-1.24-.31v4.15h-1.32v-.47h-3.95v.49h-1.26v-4.09c-.41.14-.83.26-1.24.35-.12-.24-.33-.61-.55-.83v.92h-2.56v1.87c1-.1,2.03-.22,3.03-.31l.02,1.1c-2.85.31-5.82.63-7.93.87l-.16-1.2,1.12-.1v-3.91h1.14v3.82l1.51-.16v-4.35h-2.52v-3.74h6.2v3.74h-2.42v1.32h2.44c1.4-.31,2.85-.83,4.15-1.53-.61-.43-1.12-.94-1.59-1.47-.47.41-1.02.81-1.63,1.18-.2-.28-.57-.63-.85-.79,1.69-.88,2.91-2.1,3.54-3.21l1.2.2c-.18.28-.35.53-.55.81h3.56l.22-.08.83.45ZM9.94,12.85h-1.44v-3.72h7.51v-1.08h-6.73v-.98h15.01v.98h-6.84v1.08h7.65v3.72h-1.46v-2.75h-6.2v4.05h-1.44v-4.05h-6.08v2.75ZM10.39,12.83c1.24-.14,2.91-.37,4.64-.65l.06.87c-1.53.31-3.01.59-4.31.83l-.39-1.04ZM10.53,17.23h3.74v-1.75h-3.74v1.75ZM11.37,10.27c1.2.24,2.71.67,3.54,1.06l-.37.81c-.83-.39-2.36-.87-3.58-1.14l.41-.73ZM23.47,19.91c-.98-.33-1.93-.75-2.75-1.26-.83.51-1.71.9-2.62,1.26h5.37ZM22.96,13.93c-1.08-.37-3.07-.85-4.58-1.06l.31-.81c1.49.18,3.48.59,4.54.96l-.28.9ZM22.84,11c-1.12.49-2.71.87-3.84,1.1l-.45-.67c1.1-.26,2.75-.85,3.7-1.2l.59.77ZM22.66,22.76v-1.89h-3.95v1.89h3.95ZM18.87,15.84c.47.57,1.1,1.1,1.83,1.57.75-.51,1.44-1.1,1.93-1.73h-3.62l-.14.16Z"/><path class="cls-2" d="M47.04,22.72v1.08h-17.19v-1.08h7.81v-1.04h-5.92v-.96h5.92v-.96c-3.84.1-4.41.14-4.8.25-.04-.24-.2-.77-.31-1.06.29-.02.65-.1,1.06-.26.31-.12,1.1-.47,1.93-.96h-3.38v-.9h12.47v.9h-2.24c1.06.61,2.14,1.38,2.79,1.93l-.9.77c-.24-.24-.59-.51-.96-.81l-4.21.1v1h6.16v.96h-6.16v1.04h7.95ZM37.66,8.46h-7.79v-1.02h7.79v-1.16h1.44v1.16h7.93v1.02h-7.93v1.02h6.47v.96h-14.26v-.96h6.35v-1.02ZM45.25,17.74v-1.77h-13.69v1.77h-1.32v-2.79h16.38v2.79h-1.38ZM44.74,11.27v2.85h-12.55v-2.85h12.55ZM43.3,12.14h-9.76v1.12h9.76v-1.12ZM37.27,17.72c-.69.45-1.38.83-2.06,1.14l6.86-.1c-.51-.33-1.04-.63-1.51-.89l.18-.16h-3.46Z"/></g></svg>