<?xml version="1.0" encoding="UTF-8"?><svg id="_圖層_2" xmlns="http://www.w3.org/2000/svg" viewBox="0 0 108.39 111.13"><defs><style>.cls-1{fill:#154c1b;}</style></defs><g id="_文字"><path class="cls-1" d="M107.47,65.58C112.99,35.45,92.97,6.44,62.84.92,41.66-2.97,21.05,5.78,8.74,21.78c.15.1.29.2.43.32C21.36,6.26,41.77-2.41,62.74,1.44c29.85,5.47,49.67,34.2,44.2,64.05s-34.2,49.68-64.05,44.2C22.36,105.93,6.56,91.14.49,72.56c-.16.08-.33.15-.49.21,6.14,18.74,22.08,33.65,42.8,37.45,30.13,5.52,59.14-14.5,64.67-44.63Z"/></g></svg>