<?xml version="1.0" encoding="UTF-8"?><svg id="_圖層_2" xmlns="http://www.w3.org/2000/svg" xmlns:xlink="http://www.w3.org/1999/xlink" viewBox="0 0 23.71 23.8"><defs><style>.cls-1{fill:url(#_未命名漸層_10);}</style><linearGradient id="_未命名漸層_10" x1="0" y1="11.9" x2="23.71" y2="11.9" gradientUnits="userSpaceOnUse"><stop offset="0" stop-color="#fff100"/><stop offset=".27" stop-color="#f9f351"/><stop offset=".53" stop-color="#f4f69b"/><stop offset=".75" stop-color="#f1f8d1"/><stop offset=".91" stop-color="#eef9f2"/><stop offset="1" stop-color="#eefaff"/></linearGradient></defs><g id="_跳頁按鈕"><path class="cls-1" d="M23.71,0c-.56.36-1.09.75-1.67,1.07-2.08,1.13-4.52,1.6-6.84,1.88-1.25.15-2.54.26-3.76.54C5.35,4.92,2.21,11.35.99,16.93c-.32,1.48-.58,2.97-.76,4.48-.08.68-.11,1.36-.2,2.03,0,.08-.04.3-.01.36.03-.05.02-.07.03-.13.19-1.55.52-3.52,1.41-4.82.31-.46.73-.85,1.17-1.19.15-.11.3-.21.46-.31h.05c.52,0,1.04.05,1.56.08.64.03,1.28.03,1.92.01,4.11-.14,7.29-1.73,10.13-4.64.36-.37.69-.77,1.03-1.16,2.49-2.9,4.21-6.16,5.4-9.79.11-.33.55-1.55.53-1.84,0,0,0-.02,0-.03ZM12.79,9.84c-.91.7-9.08,2.34-11.7,8.9,0-.03,0-.04.01-.08.18-.68.64-1.6.98-2.22,1.49-2.69,3.47-4.51,6.42-5.46,1.65-.53,3.85-.73,6.8-2.91-.01.1-.81.73-2.53,1.77Z"/></g></svg>