<?xml version="1.0" encoding="UTF-8"?><svg id="_圖層_2" xmlns="http://www.w3.org/2000/svg" viewBox="0 0 24.02 24.11"><defs><style>.cls-1{fill:#90c260;}</style></defs><g id="_介面按鈕"><path class="cls-1" d="M24.01,0c-.57.36-1.1.76-1.69,1.08-2.11,1.15-4.58,1.62-6.93,1.9-1.26.15-2.57.26-3.81.55C5.42,4.98,2.24,11.5,1.01,17.15c-.33,1.5-.58,3.01-.77,4.53-.09.68-.11,1.38-.21,2.06,0,.08-.05.31-.01.36.03-.05.03-.07.03-.13.19-1.57.52-3.56,1.43-4.89.32-.46.74-.86,1.18-1.2.15-.11.3-.21.46-.31h.05c.52,0,1.06.05,1.58.08.65.03,1.3.03,1.95.01,4.17-.14,7.38-1.76,10.27-4.7.36-.37.7-.78,1.04-1.17,2.52-2.94,4.27-6.24,5.47-9.91.11-.33.56-1.57.54-1.86,0,0,0-.02,0-.03ZM12.95,9.96c-.92.71-9.2,2.37-11.85,9.02,0-.04,0-.04.02-.08.18-.69.64-1.62.99-2.25,1.51-2.73,3.51-4.57,6.51-5.53,1.68-.54,3.9-.74,6.89-2.94-.01.1-.83.74-2.56,1.79Z"/></g></svg>