<?xml version="1.0" encoding="UTF-8"?><svg id="_圖層_2" xmlns="http://www.w3.org/2000/svg" viewBox="0 0 33.4 13.75"><defs><style>.cls-1{fill:#ef8000;}</style></defs><g id="_插圖_x28_按鈕_x29_"><path class="cls-1" d="M19.64,5.97c.48.51.48,1.31,0,1.82l-3.31,3.55-1.86,1.99c-.83.88-2.31.3-2.31-.91V1.34c0-1.21,1.48-1.79,2.31-.91l1.86,1.99,3.31,3.55Z"/><path class="cls-1" d="M7.48,5.97c.48.51.48,1.31,0,1.82l-3.31,3.55-1.86,1.99c-.83.88-2.31.3-2.31-.91V1.34C0,.13,1.48-.46,2.31.43l1.86,1.99,3.31,3.55Z"/><path class="cls-1" d="M33.04,5.97c.48.51.48,1.31,0,1.82l-3.31,3.55-1.86,1.99c-.83.88-2.31.3-2.31-.91V1.34c0-1.21,1.48-1.79,2.31-.91l1.86,1.99,3.31,3.55Z"/></g></svg>