<?xml version="1.0" encoding="UTF-8"?><svg id="_圖層_2" xmlns="http://www.w3.org/2000/svg" viewBox="0 0 35.25 35.25"><defs><style>.cls-1{fill:#fff;}.cls-2{fill:#37549f;}</style></defs><g id="_介面"><circle class="cls-2" cx="17.63" cy="17.63" r="17.63"/><path class="cls-1" d="M5.56,9.37h5.46c3.39,0,5.97.98,5.97,4.06,0,1.52-.85,3.08-2.25,3.57v.11c1.78.42,3.1,1.67,3.1,3.9,0,3.32-2.76,4.86-6.4,4.86h-5.89V9.37ZM10.77,16.08c2.1,0,3.01-.85,3.01-2.16,0-1.45-.98-2.03-2.96-2.03h-1.96v4.19h1.92ZM11.15,23.32c2.25,0,3.48-.8,3.48-2.52,0-1.61-1.2-2.27-3.48-2.27h-2.3v4.79h2.3Z"/><path class="cls-1" d="M18.64,21.76c0-2.12,1.29-3.48,2.83-4.3v-.11c-1.27-.91-2.18-2.16-2.18-3.92,0-2.65,2.1-4.35,4.97-4.35s4.79,1.76,4.79,4.39c0,1.63-1.03,2.99-2.12,3.77v.11c1.52.82,2.76,2.16,2.76,4.41,0,2.5-2.21,4.41-5.55,4.41-3.14,0-5.51-1.83-5.51-4.41ZM26.64,21.65c0-1.72-1.52-2.43-3.66-3.3-.89.71-1.52,1.83-1.52,3.05,0,1.49,1.23,2.45,2.76,2.45,1.38,0,2.41-.78,2.41-2.21ZM26.37,13.67c0-1.34-.8-2.3-2.18-2.3-1.11,0-2.01.74-2.01,2.05,0,1.56,1.27,2.32,3.01,3.01.8-.85,1.18-1.78,1.18-2.76Z"/></g></svg>