<?xml version="1.0" encoding="UTF-8"?><svg id="_圖層_2" xmlns="http://www.w3.org/2000/svg" viewBox="0 0 35.25 35.25"><defs><style>.cls-1{fill:#fff;}.cls-2{fill:#37549f;}</style></defs><g id="_介面"><circle class="cls-2" cx="17.63" cy="17.63" r="17.63" transform="translate(-3.56 30.77) rotate(-76.82)"/><path class="cls-1" d="M14.74,21.64h-5.35l-1.16,4.23h-3.34l5.28-16.5h3.88l5.31,16.5h-3.46l-1.16-4.23ZM14.03,19.08l-.49-1.81c-.51-1.71-.96-3.61-1.45-5.39h-.09c-.42,1.81-.91,3.68-1.4,5.39l-.49,1.81h3.92Z"/><path class="cls-1" d="M28.38,12.9c-.58-.67-1.58-1.2-2.54-1.2-1.9,0-3.46,1.43-3.59,5.55.89-1.09,2.32-1.76,3.39-1.76,2.76,0,4.73,1.65,4.73,5.2s-2.36,5.51-5.17,5.51c-3.14,0-5.93-2.52-5.93-8.34,0-6.15,3.05-8.78,6.38-8.78,2.01,0,3.48.85,4.48,1.87l-1.74,1.96ZM27.36,20.68c0-1.96-.91-2.88-2.34-2.88-.89,0-1.87.47-2.7,1.74.31,3.01,1.43,4.17,2.81,4.17,1.23,0,2.23-1.03,2.23-3.03Z"/></g></svg>