<?xml version="1.0" encoding="UTF-8"?><svg id="_圖層_2" xmlns="http://www.w3.org/2000/svg" viewBox="0 0 35.25 35.25"><defs><style>.cls-1{fill:#fff;}.cls-2{fill:#37549f;}</style></defs><g id="_介面"><circle class="cls-2" cx="17.63" cy="17.63" r="17.63" transform="translate(-2.85 31.84) rotate(-79.76)"/><path class="cls-1" d="M14.84,21.8h-5.35l-1.16,4.24h-3.34l5.28-16.5h3.88l5.31,16.5h-3.46l-1.16-4.24ZM14.13,19.23l-.49-1.81c-.51-1.72-.96-3.61-1.45-5.39h-.09c-.42,1.81-.91,3.68-1.4,5.39l-.49,1.81h3.92Z"/><path class="cls-1" d="M19.21,24.14c4.48-4.01,7.13-7.11,7.13-9.65,0-1.67-.91-2.67-2.47-2.67-1.2,0-2.21.78-3.03,1.69l-1.78-1.78c1.52-1.6,2.99-2.5,5.24-2.5,3.12,0,5.19,2.01,5.19,5.08s-2.47,6.2-5.48,9.14c.82-.09,1.92-.18,2.67-.18h3.59v2.76h-11.06v-1.89Z"/></g></svg>