<?xml version="1.0" encoding="UTF-8"?><svg id="_圖層_2" xmlns="http://www.w3.org/2000/svg" viewBox="0 0 35.25 35.25"><defs><style>.cls-1{fill:#fff;}.cls-2{fill:#37549f;}</style></defs><g id="_介面"><circle class="cls-2" cx="17.63" cy="17.63" r="17.63" transform="translate(-2.6 32.2) rotate(-80.78)"/><path class="cls-1" d="M5.65,9.22h5.46c3.39,0,5.97.98,5.97,4.06,0,1.52-.85,3.08-2.25,3.57v.11c1.78.42,3.1,1.67,3.1,3.9,0,3.32-2.76,4.86-6.4,4.86h-5.89V9.22ZM10.86,15.93c2.1,0,3.01-.85,3.01-2.16,0-1.45-.98-2.03-2.96-2.03h-1.96v4.19h1.92ZM11.24,23.18c2.25,0,3.48-.8,3.48-2.52,0-1.61-1.2-2.27-3.48-2.27h-2.3v4.79h2.3Z"/><path class="cls-1" d="M18.26,23.78l1.52-2.1c.94.91,2.1,1.67,3.63,1.67,1.72,0,2.92-1.09,2.92-3.03s-1.11-2.99-2.79-2.99c-.98,0-1.52.25-2.47.87l-1.49-.98.45-8h8.83v2.74h-6l-.31,3.5c.65-.31,1.23-.47,1.98-.47,2.76,0,5.08,1.65,5.08,5.24s-2.72,5.8-5.77,5.8c-2.61,0-4.35-1.03-5.57-2.25Z"/></g></svg>