<?xml version="1.0" encoding="UTF-8"?><svg id="_圖層_2" xmlns="http://www.w3.org/2000/svg" viewBox="0 0 35.25 35.25"><defs><style>.cls-1{fill:#fff;}.cls-2{fill:#37549f;}</style></defs><g id="_介面"><circle class="cls-2" cx="17.63" cy="17.63" r="17.63"/><path class="cls-1" d="M5.57,9.38h5.46c3.39,0,5.97.98,5.97,4.06,0,1.52-.85,3.08-2.25,3.57v.11c1.78.42,3.1,1.67,3.1,3.9,0,3.32-2.76,4.86-6.4,4.86h-5.89V9.38ZM10.79,16.09c2.1,0,3.01-.85,3.01-2.16,0-1.45-.98-2.03-2.96-2.03h-1.96v4.19h1.92ZM11.16,23.33c2.25,0,3.48-.8,3.48-2.52,0-1.61-1.2-2.27-3.48-2.27h-2.3v4.79h2.3Z"/><path class="cls-1" d="M26.14,12.12h-7.42v-2.74h10.97v1.98c-3.83,4.68-4.35,8.05-4.62,14.51h-3.32c.29-5.73,1.25-9.39,4.39-13.75Z"/></g></svg>