<?xml version="1.0" encoding="UTF-8"?><svg id="_圖層_2" xmlns="http://www.w3.org/2000/svg" viewBox="0 0 35.25 35.25"><defs><style>.cls-1{fill:#fff;}.cls-2{fill:#37549f;}</style></defs><g id="_介面"><circle class="cls-2" cx="17.63" cy="17.63" r="17.63" transform="translate(-3.83 30.31) rotate(-75.58)"/><path class="cls-1" d="M5.5,9.38h5.46c3.39,0,5.97.98,5.97,4.06,0,1.52-.85,3.08-2.25,3.57v.11c1.78.42,3.1,1.67,3.1,3.9,0,3.32-2.76,4.86-6.4,4.86h-5.89V9.38ZM10.72,16.09c2.1,0,3.01-.85,3.01-2.16,0-1.45-.98-2.03-2.96-2.03h-1.96v4.19h1.92ZM11.1,23.33c2.25,0,3.48-.8,3.48-2.52,0-1.61-1.2-2.27-3.48-2.27h-2.3v4.79h2.3Z"/><path class="cls-1" d="M27.77,12.9c-.58-.67-1.58-1.2-2.54-1.2-1.9,0-3.46,1.43-3.59,5.55.89-1.09,2.32-1.76,3.39-1.76,2.76,0,4.73,1.65,4.73,5.19s-2.36,5.51-5.17,5.51c-3.14,0-5.93-2.52-5.93-8.34,0-6.15,3.05-8.78,6.38-8.78,2.01,0,3.48.85,4.48,1.87l-1.74,1.96ZM26.74,20.68c0-1.96-.91-2.88-2.34-2.88-.89,0-1.87.47-2.7,1.74.31,3.01,1.43,4.17,2.81,4.17,1.23,0,2.23-1.03,2.23-3.03Z"/></g></svg>