<?xml version="1.0" encoding="UTF-8"?><svg id="_圖層_2" xmlns="http://www.w3.org/2000/svg" viewBox="0 0 35.25 35.25"><defs><style>.cls-1{fill:#fff;}.cls-2{fill:#37549f;}</style></defs><g id="_介面"><circle class="cls-2" cx="17.63" cy="17.63" r="17.63" transform="translate(-5.4 8.09) rotate(-22.5)"/><path class="cls-1" d="M14.89,21.48h-5.35l-1.16,4.24h-3.34l5.28-16.5h3.88l5.31,16.5h-3.46l-1.16-4.24ZM14.17,18.92l-.49-1.8c-.51-1.72-.96-3.61-1.45-5.39h-.09c-.42,1.8-.91,3.68-1.4,5.39l-.49,1.8h3.92Z"/><path class="cls-1" d="M18.87,23.78l1.52-2.1c.94.91,2.1,1.67,3.63,1.67,1.72,0,2.92-1.09,2.92-3.03s-1.11-2.99-2.79-2.99c-.98,0-1.52.25-2.47.87l-1.49-.98.45-8h8.83v2.74h-6l-.31,3.5c.65-.31,1.23-.47,1.98-.47,2.76,0,5.08,1.65,5.08,5.24s-2.72,5.8-5.77,5.8c-2.61,0-4.35-1.03-5.57-2.25Z"/></g></svg>