<?xml version="1.0" encoding="UTF-8"?><svg id="_圖層_2" xmlns="http://www.w3.org/2000/svg" viewBox="0 0 35.25 35.25"><defs><style>.cls-1{fill:#fff;}.cls-2{fill:#37549f;}</style></defs><g id="_介面"><circle class="cls-2" cx="17.63" cy="17.63" r="17.63" transform="translate(-5.4 8.09) rotate(-22.5)"/><path class="cls-1" d="M5.6,9.38h5.46c3.39,0,5.97.98,5.97,4.06,0,1.52-.85,3.08-2.25,3.57v.11c1.78.42,3.1,1.67,3.1,3.9,0,3.32-2.76,4.86-6.4,4.86h-5.89V9.38ZM10.82,16.09c2.1,0,3.01-.85,3.01-2.16,0-1.45-.98-2.03-2.96-2.03h-1.96v4.19h1.92ZM11.2,23.33c2.25,0,3.48-.8,3.48-2.52,0-1.61-1.2-2.27-3.48-2.27h-2.3v4.79h2.3Z"/><path class="cls-1" d="M20.51,22.35c.6.65,1.63,1.16,2.61,1.16,1.85,0,3.39-1.4,3.52-5.55-.85,1.11-2.25,1.81-3.39,1.81-2.74,0-4.73-1.69-4.73-5.19s2.36-5.51,5.19-5.51c3.12,0,5.93,2.45,5.93,8.18,0,6.24-3.05,8.94-6.33,8.94-2.05,0-3.54-.87-4.53-1.87l1.72-1.96ZM26.6,15.67c-.29-3.01-1.43-4.12-2.83-4.12-1.23,0-2.23,1-2.23,3.03s.91,2.85,2.34,2.85c.89,0,1.92-.49,2.72-1.76Z"/></g></svg>