<?xml version="1.0" encoding="UTF-8"?><svg id="_圖層_2" xmlns="http://www.w3.org/2000/svg" viewBox="0 0 35.25 35.25"><defs><style>.cls-1{fill:#fff;}.cls-2{fill:#37549f;}</style></defs><g id="_介面"><circle class="cls-2" cx="17.63" cy="17.63" r="17.63" transform="translate(-5.4 8.09) rotate(-22.5)"/><path class="cls-1" d="M14.8,21.63h-5.35l-1.16,4.24h-3.34l5.28-16.5h3.88l5.31,16.5h-3.46l-1.16-4.24ZM14.08,19.06l-.49-1.81c-.51-1.72-.96-3.61-1.45-5.39h-.09c-.42,1.81-.91,3.68-1.4,5.39l-.49,1.81h3.92Z"/><path class="cls-1" d="M19.25,21.76c0-2.12,1.29-3.48,2.83-4.3v-.11c-1.27-.91-2.18-2.16-2.18-3.92,0-2.65,2.1-4.35,4.97-4.35s4.79,1.76,4.79,4.39c0,1.63-1.03,2.99-2.12,3.77v.11c1.52.82,2.76,2.16,2.76,4.41,0,2.5-2.21,4.41-5.55,4.41-3.14,0-5.51-1.83-5.51-4.41ZM27.26,21.65c0-1.72-1.52-2.43-3.66-3.3-.89.71-1.52,1.83-1.52,3.05,0,1.49,1.23,2.45,2.76,2.45,1.38,0,2.41-.78,2.41-2.21ZM26.99,13.67c0-1.34-.8-2.3-2.18-2.3-1.11,0-2.01.74-2.01,2.05,0,1.56,1.27,2.32,3.01,3.01.8-.85,1.18-1.78,1.18-2.76Z"/></g></svg>