<?xml version="1.0" encoding="UTF-8"?><svg id="_圖層_2" xmlns="http://www.w3.org/2000/svg" viewBox="0 0 35.25 35.25"><defs><style>.cls-1{fill:#fff;}.cls-2{fill:#37549f;}</style></defs><g id="_介面"><circle class="cls-2" cx="17.63" cy="17.63" r="17.63" transform="translate(-7.3 17.63) rotate(-45)"/><path class="cls-1" d="M14.9,21.64h-5.35l-1.16,4.24h-3.34l5.28-16.5h3.88l5.31,16.5h-3.46l-1.16-4.24ZM14.18,19.08l-.49-1.81c-.51-1.72-.96-3.61-1.45-5.39h-.09c-.42,1.81-.91,3.68-1.4,5.39l-.49,1.81h3.92Z"/><path class="cls-1" d="M18.89,23.89l1.54-2.07c.98.96,2.18,1.69,3.68,1.69,1.67,0,2.81-.82,2.81-2.3,0-1.63-.96-2.63-4.55-2.63v-2.36c3.03,0,4.01-1.05,4.01-2.52,0-1.29-.8-2.05-2.21-2.07-1.18.02-2.14.58-3.12,1.47l-1.67-2.01c1.43-1.25,3.01-2.03,4.95-2.03,3.19,0,5.35,1.56,5.35,4.39,0,1.78-1,3.08-2.76,3.77v.11c1.87.51,3.3,1.89,3.3,4.06,0,3.03-2.65,4.79-5.8,4.79-2.61,0-4.37-.98-5.53-2.3Z"/></g></svg>