<?xml version="1.0" encoding="UTF-8"?><svg id="_圖層_2" xmlns="http://www.w3.org/2000/svg" viewBox="0 0 35.25 35.25"><defs><style>.cls-1{fill:#fff;}.cls-2{fill:#37549f;}</style></defs><g id="_介面"><circle class="cls-2" cx="17.63" cy="17.63" r="17.63" transform="translate(-5.45 8.19) rotate(-22.76)"/><path class="cls-1" d="M5.6,9.53h5.46c3.39,0,5.97.98,5.97,4.06,0,1.52-.85,3.08-2.25,3.57v.11c1.78.42,3.1,1.67,3.1,3.9,0,3.32-2.76,4.86-6.4,4.86h-5.89V9.53ZM10.82,16.24c2.1,0,3.01-.85,3.01-2.16,0-1.45-.98-2.03-2.96-2.03h-1.96v4.19h1.92ZM11.2,23.49c2.25,0,3.48-.8,3.48-2.52,0-1.61-1.2-2.27-3.48-2.27h-2.3v4.79h2.3Z"/><path class="cls-1" d="M18.6,24.14c4.48-4.01,7.13-7.11,7.13-9.65,0-1.67-.91-2.67-2.47-2.67-1.2,0-2.21.78-3.03,1.69l-1.78-1.78c1.52-1.61,2.99-2.5,5.24-2.5,3.12,0,5.19,2.01,5.19,5.08s-2.47,6.2-5.48,9.14c.82-.09,1.92-.18,2.67-.18h3.59v2.77h-11.06v-1.89Z"/></g></svg>