<?xml version="1.0" encoding="UTF-8"?><svg id="_圖層_2" xmlns="http://www.w3.org/2000/svg" viewBox="0 0 35.25 35.25"><defs><style>.cls-1{fill:#fff;}.cls-2{fill:#37549f;}</style></defs><g id="_介面"><circle class="cls-2" cx="17.63" cy="17.63" r="17.63" transform="translate(-5.4 8.09) rotate(-22.5)"/><path class="cls-1" d="M14.84,21.64h-5.35l-1.16,4.23h-3.34l5.28-16.5h3.88l5.31,16.5h-3.46l-1.16-4.23ZM14.13,19.08l-.49-1.81c-.51-1.71-.96-3.61-1.45-5.39h-.09c-.42,1.81-.91,3.68-1.4,5.39l-.49,1.81h3.92Z"/><path class="cls-1" d="M21.13,22.35c.6.65,1.63,1.16,2.61,1.16,1.85,0,3.39-1.4,3.52-5.55-.85,1.12-2.25,1.81-3.39,1.81-2.74,0-4.73-1.7-4.73-5.2s2.36-5.51,5.19-5.51c3.12,0,5.93,2.45,5.93,8.18,0,6.24-3.05,8.94-6.33,8.94-2.05,0-3.54-.87-4.53-1.87l1.72-1.96ZM27.21,15.67c-.29-3.01-1.43-4.12-2.83-4.12-1.23,0-2.23,1-2.23,3.03s.91,2.85,2.34,2.85c.89,0,1.92-.49,2.72-1.76Z"/></g></svg>