<?xml version="1.0" encoding="UTF-8"?><svg id="_圖層_2" xmlns="http://www.w3.org/2000/svg" viewBox="0 0 54.98 54.98"><defs><style>.cls-1{fill:#ec7d3b;}</style></defs><g id="_內容"><path class="cls-1" d="M29.21,27.35c0-3.31,2.69-6,6-6s6,2.69,6,6-2.69,6-6,6c-.61,0-1.19-.09-1.74-.26l5.93,6.08c-.22-.62-.34-1.29-.34-1.98,0-3.31,2.69-6,6-6s6,2.69,6,6-2.69,6-6,6c-.75,0-1.47-.14-2.13-.4l4.02,4.12c4.97-4.97,8.04-11.84,8.04-19.43C54.98,12.31,42.67,0,27.49,0c-4.91,0-9.52,1.29-13.51,3.55l9.01,9.25,1.9-1.9,2.55,5.4,2.55,5.4-5.4-2.55-5.4-2.55,1.65-1.65L11.36,5.23c-.98.71-1.91,1.49-2.78,2.32l20.85,21.4c-.14-.51-.22-1.04-.22-1.6Z"/><path class="cls-1" d="M0,27.49c0,15.18,12.31,27.49,27.49,27.49,6.5,0,12.46-2.26,17.17-6.03L6.48,9.77C2.44,14.55,0,20.74,0,27.49Z"/></g></svg>