<?xml version="1.0" encoding="UTF-8"?><svg id="_圖層_2" xmlns="http://www.w3.org/2000/svg" viewBox="0 0 54.53 54.53"><defs><style>.cls-1{fill:#5a9ac0;}</style></defs><g id="_內容"><path class="cls-1" d="M27.26,0C12.21,0,0,12.21,0,27.26s12.21,27.26,27.26,27.26,27.26-12.21,27.26-27.26S42.32,0,27.26,0ZM27.26,50.44c-4.24,0-8.54-1.09-8.54-3.16s4.3-3.16,8.54-3.16h.12v1.19h-.12c-4.75,0-7.34,1.3-7.34,1.97s2.59,1.97,7.34,1.97,7.34-1.3,7.34-1.97c0-.37-.81-.95-2.36-1.38l-.21.7-1.51-1.99,2.27-.5-.2.65c1.89.52,3.2,1.37,3.2,2.52,0,2.08-4.3,3.16-8.54,3.16ZM27.26,42.09c-5.6,0-11.26-1.43-11.26-4.17s5.67-4.17,11.26-4.17h.16v1.58h-.16c-6.27,0-9.69,1.72-9.69,2.6s3.42,2.6,9.69,2.6,9.69-1.72,9.69-2.6c0-.49-1.07-1.25-3.11-1.81l-.28.92-2-2.63,2.99-.66-.26.85c2.49.69,4.22,1.81,4.22,3.32,0,2.74-5.67,4.17-11.26,4.17ZM27.26,32.25c-6.97,0-14.02-1.78-14.02-5.2s7.05-5.2,14.02-5.2h.2v1.96h-.2c-7.8,0-12.06,2.14-12.06,3.24s4.25,3.24,12.06,3.24,12.06-2.14,12.06-3.24c0-.62-1.33-1.55-3.87-2.26l-.35,1.15-2.48-3.27,3.73-.82-.32,1.06c3.1.86,5.26,2.25,5.26,4.13,0,3.41-7.05,5.2-14.02,5.2ZM27.26,20.55c-8.6,0-17.31-2.2-17.31-6.42s8.71-6.42,17.31-6.42h.24v2.42h-.24c-9.63,0-14.89,2.64-14.89,3.99s5.25,3.99,14.89,3.99,14.89-2.64,14.89-3.99c0-.76-1.64-1.92-4.77-2.79l-.43,1.42-3.07-4.03,4.6-1.01-.4,1.31c3.83,1.06,6.49,2.78,6.49,5.1,0,4.21-8.71,6.42-17.31,6.42Z"/></g></svg>